<!-- Created with Inkscape (http://www.inkscape.org/) -->
<svg xmlns:rdf="http://www.w3.org/1999/02/22-rdf-syntax-ns#" xmlns="http://www.w3.org/2000/svg" height="100" width="100" version="1.1" xmlns:cc="http://creativecommons.org/ns#" xmlns:dc="http://purl.org/dc/elements/1.1/">
<metadata>
<rdf:RDF>
<cc:Work rdf:about="">
<dc:format>image/svg+xml</dc:format>
<dc:type rdf:resource="http://purl.org/dc/dcmitype/StillImage"/>
<dc:title/>
</cc:Work>
</rdf:RDF>
</metadata>
<g transform="translate(0,-952.36218)">
<g transform="matrix(0.33544954,0,0,0.33544965,-72.43908,830.49047)" fill="#000">
<path d="m365,661c10.7-0.008,21.7-1.19,32.6-3.63,69.4-15.5,117-77.1,117-145l-25.2-0.003c0.0429,56.7-39.1,108-96.8,121-9.07,2.03-18.1,3.01-27.1,3.02z"/>
<path d="m365,363c-10.7,0.008-21.7,1.19-32.6,3.63-69.4,15.5-117,77.1-117,145l25.2,0.008c-0.0574-56.7,39.1-108,96.8-121,9.07-2.03,18.1-3.01,27.1-3.02z"/>
<path d="m432,446c12.2,12.2,21.2,27.9,25.3,46,7.3,32.6-3.3,65.1-25.3,87.1l17.8,17.8c27.8-27.9,41.3-69,32-110-5.13-22.9-16.5-42.8-32-58.3z"/>
<path d="m298,579c-12.2-12.2-21.2-27.9-25.3-46-7.3-32.6,3.29-65.1,25.3-87.1l-17-18c-27.8,27.9-41.3,69-32,110,5.13,22.9,16.6,42.8,32,58.3z"/>
<path d="m454,512c-0.004-6.43-0.708-13-2.17-19.5-9.29-41.5-46.1-69.7-87-69.7l0.018,24.8c29.5-0.0209,56.1,20.4,62.8,50.3,1.06,4.72,1.57,9.43,1.57,14.1z"/>
<path d="m365,577c-29.5,0.021-56.1-20.4-62.8-50.3-1.05-4.71-1.56-9.42-1.57-14.1l-24.8-0.008c0.006,6.42,0.711,12.9,2.17,19.5,9.29,41.5,46.1,69.7,87,69.7z"/>
<path d="m390,488c-8.11-8.11-20.1-12-32.1-9.33-6.67,1.49-12.4,4.81-16.9,9.31l-17.5-17.5c7.7-7.72,17.6-13.4,29-16,20.6-4.61,41.1,2.08,55,16z"/>
<path d="m407,554c-7.7,7.71-17.6,13.4-29,16-20.6,4.61-41.1-2.08-55-16l17.5-17.5c8.11,8.1,20.1,12,32.1,9.31,6.67-1.49,12.4-4.81,16.9-9.31z"/>
<path d="m335,512c-0.004-5.45,1.49-11,4.62-15.9,5.65-8.91,15.3-13.8,25.1-13.8l0.0137,59.4c9.82-0.0144,19.4-4.89,25.1-13.8,3.14-4.94,4.63-10.5,4.62-15.9z"/>
</g>
</g>
</svg>
