<?xml version="1.0" encoding="UTF-8" standalone="no"?>
<!-- Created with Inkscape (http://www.inkscape.org/) -->
<svg xmlns:dc="http://purl.org/dc/elements/1.1/" xmlns:cc="http://creativecommons.org/ns#" xmlns:rdf="http://www.w3.org/1999/02/22-rdf-syntax-ns#" xmlns:svg="http://www.w3.org/2000/svg" xmlns="http://www.w3.org/2000/svg" xmlns:sodipodi="http://sodipodi.sourceforge.net/DTD/sodipodi-0.dtd" xmlns:inkscape="http://www.inkscape.org/namespaces/inkscape" id="svg2" version="1.1" inkscape:version="0.47 r22583" width="305.775" height="275.825" xml:space="preserve" sodipodi:docname="FIRSTvert_CMYK.pdf"><metadata id="metadata8"><rdf:RDF><cc:Work rdf:about=""><dc:format>image/svg+xml</dc:format><dc:type rdf:resource="http://purl.org/dc/dcmitype/StillImage"/><dc:title/></cc:Work></rdf:RDF></metadata><defs id="defs6"><inkscape:perspective sodipodi:type="inkscape:persp3d" inkscape:vp_x="0 : 0.5 : 1" inkscape:vp_y="0 : 1000 : 0" inkscape:vp_z="1 : 0.5 : 1" inkscape:persp3d-origin="0.5 : 0.33333333 : 1" id="perspective10"/></defs><sodipodi:namedview pagecolor="#ffffff" bordercolor="#666666" borderopacity="1" objecttolerance="10" gridtolerance="10" guidetolerance="10" inkscape:pageopacity="0" inkscape:pageshadow="2" inkscape:window-width="640" inkscape:window-height="484" id="namedview4" showgrid="false" inkscape:zoom="0.85561494" inkscape:cx="152.8875" inkscape:cy="137.91251" inkscape:window-x="0" inkscape:window-y="0" inkscape:window-maximized="0" inkscape:current-layer="g12"/><g id="g12" inkscape:groupmode="layer" inkscape:label="FIRSTvert_CMYK" transform="matrix(1.25,0,0,-1.25,0,275.825)"><g id="g14" transform="scale(0.24,0.24)"><path d="M 591.25,511.809 751.941,678.164 918.41,517.266 757.715,350.91 591.25,511.809 z M 748.598,777.66 489.672,509.328 760.188,247.879 1019.26,516.543 748.598,777.66" style="fill:#1c63b7;fill-opacity:1;fill-rule:nonzero;stroke:none" id="path16"/><path d="m 1019.26,516.543 -18.94,-45.93 -259.031,-268.386 -270.523,261.457 18.82,45.625 270.512,-261.446 259.162,268.68" style="fill:#a7a5a6;fill-opacity:1;fill-rule:nonzero;stroke:none" id="path18"/><path d="M 605.402,498.176 734.32,631.723 886.762,484.492 918.477,517.285 752.016,678.258 591.25,511.809 605.402,498.176" style="fill:#a7a5a6;fill-opacity:1;fill-rule:nonzero;stroke:none" id="path20"/><path d="M 331.059,761.855 460.75,531.879 176.844,446.684 331.059,761.855 z M 325.063,902.977 44.6914,329.945 560.875,484.84 325.063,902.977" style="fill:#ed1c24;fill-opacity:1;fill-rule:nonzero;stroke:none" id="path22"/><path d="M 44.7383,330.152 325.105,903.188 279.125,919.43 0,350.164 44.7383,330.152" style="fill:#a7a5a6;fill-opacity:1;fill-rule:nonzero;stroke:none" id="path24"/><path d="m 188.754,471.09 -11.91,-24.406 283.906,85.195 -129.652,230.184 -9.871,-20.196 1.461,-2.566 109.98,-195.012 -241.113,-72.351 -2.801,-0.848" style="fill:#a7a5a6;fill-opacity:1;fill-rule:nonzero;stroke:none" id="path26"/><path d="m 412.32,580.445 c -48.414,-21.429 -83.293,-57.847 -92.492,-99.929 l -0.988,3.636 c -1.75,7.075 -2.762,14.344 -2.996,21.77 -1.434,46.101 27.742,87.949 73.926,114.898 l 22.55,-40.375" style="fill:#a7a5a6;fill-opacity:1;fill-rule:nonzero;stroke:none" id="path28"/><path d="M 363.563,666.688 C 288.699,630.145 239.613,566.973 241.797,496.902 245.129,389.598 366.574,306.305 513.051,310.863 c 146.484,4.567 262.508,95.246 259.172,202.547 -1.262,40.414 -18.793,76.992 -48.586,107.18 l -44.383,-45.977 c 11.488,-17.281 17.848,-36.183 18.492,-56.812 2.402,-77.258 -81.133,-142.551 -186.601,-145.828 -105.457,-3.278 -192.895,56.691 -195.301,133.949 -1.434,46.047 27.672,87.848 73.754,114.797 l -26.035,45.969 z m 105.003,-18.2 c 10.993,1.793 22.27,2.899 33.879,3.262 38.567,1.195 75.125,-6.234 105.598,-19.715 l 38.922,40.344 c -42.27,18.641 -92.543,28.726 -146.008,27.062 -19.777,-0.617 -39.008,-2.808 -57.461,-6.398 l 25.07,-44.555" style="fill:#ffffff;fill-opacity:1;fill-rule:nonzero;stroke:none" id="path30"/><path d="m 679.148,574.758 c 11.344,-17.203 17.961,-36.473 18.598,-56.957 0.231,-7.446 -0.332,-14.785 -1.644,-21.965 l -0.747,-3.5 c -6.351,22.168 -19.882,42.242 -38.718,58.93 l 22.511,23.492" style="fill:#a7a5a6;fill-opacity:1;fill-rule:nonzero;stroke:none" id="path32"/><path d="m 495.402,600.32 c 2.864,0.192 5.746,0.321 8.653,0.414 23.375,0.727 46.285,-1.894 67.16,-6.89 l 36.828,38.191 c -30.559,13.59 -66.867,20.914 -105.598,19.715 -11.578,-0.359 -22.902,-1.473 -33.879,-3.262 l 26.836,-48.168" style="fill:#a7a5a6;fill-opacity:1;fill-rule:nonzero;stroke:none" id="path34"/><path d="M 772.223,513.41 C 775.559,406.109 659.535,315.43 513.051,310.863 366.574,306.305 245.129,389.598 241.797,496.902 l 1.699,-54.117 c 3.34,-107.305 124.781,-190.594 271.262,-186.039 146.457,4.563 262.5,95.246 259.164,202.551 l -1.699,54.113" style="fill:#a7a5a6;fill-opacity:1;fill-rule:nonzero;stroke:none" id="path36"/><path d="m 327.531,160.965 118.953,0 -8.656,-40.735 -56.984,0 -3.543,-16.675 56.816,0 -8.722,-40.7386 -56.758,0 -12.391,-58.27734 -61.965,0 33.25,156.42594" style="fill:#231f20;fill-opacity:1;fill-rule:nonzero;stroke:none" id="path38"/><path d="m 460.547,160.965 61.965,0 -33.258,-156.42594 -61.961,0 33.254,156.42594" style="fill:#231f20;fill-opacity:1;fill-rule:nonzero;stroke:none" id="path40"/><path d="m 507.539,4.53906 60.664,0 11.836,55.68364 7.145,0 c 9.976,0 13.218,-3.043 12.867,-10.8399 -0.688,-13.4375 -2.93,-33.1484 -1.735,-44.84374 l 60.672,0 c -2.129,23.60934 3.004,45.70704 2.387,59.14454 -0.5,11.9219 -7.305,18.6328 -22.191,19.9414 l 0.082,0.418 c 24.605,5.6406 35.089,19.285 38.91,37.27 6.262,29.464 -11.289,39.652 -44.871,39.652 l -92.516,0 -33.25,-156.42594 z m 80.051,91.20704 6.312,29.6879 5.625,0 c 12.141,0 19.657,-2.379 17.207,-13.871 -2.48,-11.6958 -12.031,-15.8169 -23.941,-15.8169 l -5.203,0" style="fill:#231f20;fill-opacity:1;fill-rule:nonzero;stroke:none" id="path42"/><path d="m 930.438,31.918 c -7.508,0 -13.598,-6.0899 -13.598,-13.6016 0,-7.5078 6.09,-13.59374 13.598,-13.59374 7.507,0 13.601,6.08594 13.601,13.59374 0,7.5117 -6.094,13.6016 -13.601,13.6016 z m 16.003,-13.6016 c 0,-8.83593 -7.175,-15.99609 -16.003,-15.99609 -8.829,0 -16.004,7.16016 -16.004,15.99609 0,8.8359 7.175,16 16.004,16 8.828,0 16.003,-7.1641 16.003,-16" style="fill:#231f20;fill-opacity:1;fill-rule:nonzero;stroke:none" id="path44"/><path d="m 927.254,19.4883 3.934,0 c 2.636,0.1172 3.23,1.3125 3.23,2.664 0,1.3594 -0.594,2.5508 -3.23,2.668 l -3.934,0 0,-5.332 z m 0.047,-2.0508 0,-7.76562 -2.379,0 0,17.19922 6.141,0 c 2.882,0 5.863,-0.9063 5.863,-4.3086 0,-2.0703 -1.238,-3.668 -3.246,-4.1445 l 0,-0.0508 c 2.074,-0.4961 2.359,-1.5977 2.625,-3.5195 0.258,-1.7227 0.453,-3.5508 1.07,-5.17582 l -2.547,0 c -0.223,1.02342 -0.5,2.14452 -0.617,3.16792 -0.195,1.5469 -0.195,2.961 -0.984,3.8125 -0.688,0.7852 -1.637,0.7149 -2.594,0.7852 l -3.332,0" style="fill:#231f20;fill-opacity:1;fill-rule:nonzero;stroke:none" id="path46"/><path d="m 822.734,116.18 0.457,10.199 c 1.579,29.332 -23.593,38.289 -58.734,38.289 -45.711,0 -75.844,-18.422 -82.758,-50.926 -4.281,-20.1561 1.086,-34.6639 23.614,-41.8162 l 41.214,-13 c 5.493,-1.7344 9.391,-4.7656 8.157,-10.6172 -1.481,-6.9297 -8.575,-12.7891 -17.676,-12.7891 -5.84,0 -9.34,1.9532 -11.07,4.9922 -1.696,3.2539 -1.633,7.5781 -0.715,11.9141 l -59.368,0 C 657.191,11.6953 689.375,0 727.078,0 c 44.195,0 78.813,16.0273 86.961,54.3711 4,18.8516 -1.668,32.9414 -19.629,41.1797 -14.398,6.7152 -35.359,11.0392 -46.539,14.5122 -6.086,1.949 -9.258,4.332 -8.07,9.957 1.023,4.777 6.269,9.113 16.234,9.113 8.02,0 12.754,-3.258 10.891,-13.004" style="fill:#231f20;fill-opacity:1;fill-rule:nonzero;stroke:none" id="path48"/><path d="m 824.371,115.352 0.109,0.007 38.196,0.024 -23.543,-112.09003 62.199,-0.0625 23.922,112.17953 38.281,0 10.348,44.387 -139.887,-0.059 -9.625,-44.386" style="fill:#231f20;fill-opacity:1;fill-rule:nonzero;stroke:none" id="path50"/></g></g></svg>